<svg width="32" height="39" viewBox="0 0 32 39" fill="none" xmlns="http://www.w3.org/2000/svg">
<path d="M25.3076 0.706743L20.4382 0.698975C14.9677 0.698975 11.4323 4.30565 11.4323 9.88794V14.1247H6.53641C6.11335 14.1247 5.77075 14.4657 5.77075 14.8864V21.0249C5.77075 21.4456 6.11374 21.7863 6.53641 21.7863H11.4323V37.2758C11.4323 37.6964 11.7749 38.0371 12.198 38.0371H18.5858C19.0089 38.0371 19.3515 37.696 19.3515 37.2758V21.7863H25.076C25.499 21.7863 25.8416 21.4456 25.8416 21.0249L25.844 14.8864C25.844 14.6844 25.7631 14.491 25.6197 14.348C25.4764 14.2051 25.281 14.1247 25.0779 14.1247H19.3515V10.5331C19.3515 8.80691 19.7652 7.93058 22.0266 7.93058L25.3068 7.92942C25.7295 7.92942 26.0721 7.58837 26.0721 7.16807V1.46809C26.0721 1.04818 25.7299 0.70752 25.3076 0.706743Z" fill="white"/>
</svg>
