<svg width="38" height="39" viewBox="0 0 38 39" fill="none" xmlns="http://www.w3.org/2000/svg">
<path d="M27.5131 0.316406H10.4864C4.7042 0.316406 0 4.94059 0 10.6242V27.3605C0 33.0443 4.7042 37.6682 10.4864 37.6682H27.5131C33.2958 37.6682 38 33.0441 38 27.3605V10.6242C38.0002 4.94059 33.2958 0.316406 27.5131 0.316406ZM34.6287 27.3605C34.6287 31.2169 31.4367 34.3542 27.5134 34.3542H10.4864C6.56327 34.3544 3.37154 31.2169 3.37154 27.3605V10.6242C3.37154 6.76795 6.56327 3.63044 10.4864 3.63044H27.5131C31.4365 3.63044 34.6285 6.76795 34.6285 10.6242L34.6287 27.3605Z" fill="white"/>
<path d="M19.0006 9.3677C13.6014 9.3677 9.20898 13.6854 9.20898 18.9927C9.20898 24.2998 13.6014 28.6173 19.0006 28.6173C24.3998 28.6173 28.7923 24.2998 28.7923 18.9927C28.7923 13.6854 24.3998 9.3677 19.0006 9.3677ZM19.0006 25.3029C15.4607 25.3029 12.5805 22.4722 12.5805 18.9925C12.5805 15.5126 15.4605 12.6817 19.0006 12.6817C22.5408 12.6817 25.4207 15.5126 25.4207 18.9925C25.4207 22.4722 22.5405 25.3029 19.0006 25.3029Z" fill="white"/>
<path d="M29.2019 6.55936C28.5523 6.55936 27.9142 6.81793 27.4555 7.27099C26.9945 7.72184 26.7295 8.34948 26.7295 8.99039C26.7295 9.62932 26.9947 10.2567 27.4555 10.7098C27.914 11.1606 28.5523 11.4214 29.2019 11.4214C29.8537 11.4214 30.4898 11.1606 30.9506 10.7098C31.4113 10.2567 31.6743 9.62909 31.6743 8.99039C31.6743 8.34948 31.4113 7.72184 30.9506 7.27099C30.4921 6.81793 29.8537 6.55936 29.2019 6.55936Z" fill="white"/>
</svg>
