<svg width="252" height="85" viewBox="0 0 252 85" fill="none" xmlns="http://www.w3.org/2000/svg">
<g filter="url(#filter0_d)">
<path d="M29.7939 64.5859L14.0933 48.8606V65.7091L4 75.8182V25.2727L29.7939 51.1071L80.821 0V13.4788L29.7939 64.5859Z" fill="#009FFF"/>
<path d="M5.12078 76.9419L80.8203 76.9419L80.8203 15.7257L65.1208 31.451L70.7281 31.451L70.7227 66.8228L58.3864 66.8328L58.3919 38.1904L48.2976 48.2995L48.2976 66.8228L15.2141 66.8228L5.12078 76.9419Z" fill="white"/>
</g>
<path d="M115.59 2.02V25H111.24V14.47L104.04 24.7H103.98L97.05 15.13V25H92.85V2.02H92.88L104.07 17.89L115.53 2.02H115.59ZM119.947 13.99C119.947 11.99 120.447 10.12 121.447 8.38C122.467 6.64 123.837 5.26 125.557 4.24C127.297 3.2 129.177 2.68 131.197 2.68C133.217 2.68 135.087 3.2 136.807 4.24C138.547 5.26 139.927 6.64 140.947 8.38C141.987 10.12 142.507 11.99 142.507 13.99C142.507 16.03 141.987 17.91 140.947 19.63C139.927 21.35 138.547 22.72 136.807 23.74C135.087 24.74 133.217 25.24 131.197 25.24C129.157 25.24 127.277 24.74 125.557 23.74C123.837 22.72 122.467 21.35 121.447 19.63C120.447 17.91 119.947 16.03 119.947 13.99ZM124.447 13.99C124.447 15.27 124.747 16.45 125.347 17.53C125.967 18.61 126.797 19.47 127.837 20.11C128.897 20.73 130.067 21.04 131.347 21.04C132.587 21.04 133.717 20.73 134.737 20.11C135.757 19.47 136.557 18.62 137.137 17.56C137.717 16.48 138.007 15.29 138.007 13.99C138.007 12.67 137.707 11.47 137.107 10.39C136.507 9.31 135.687 8.46 134.647 7.84C133.627 7.2 132.487 6.88 131.227 6.88C129.967 6.88 128.817 7.2 127.777 7.84C126.757 8.46 125.947 9.31 125.347 10.39C124.747 11.47 124.447 12.67 124.447 13.99ZM166.734 2.92V25.9H166.614L151.164 11.95L151.254 25H146.844V2.05H147.024L162.444 16.21L162.354 2.92H166.734ZM187.48 2.92V7.12H176.77V11.83H186.25V16.03H176.77V20.8H187.9V25H172.42V2.92H187.48ZM210.761 2.92L202.481 18.13V25H198.131V18.13L190.001 2.92H195.371L200.441 13.12L205.391 2.92H210.761ZM106.65 32.92V37.12H97.2V42.13H105.39V46.33H97.2V55H92.85V32.92H106.65ZM119.649 50.68H112.329L110.529 55H106.239L116.199 32.05H116.439L126.399 55H121.359L119.649 50.68ZM118.209 47.02L116.079 41.65L113.859 47.02H118.209ZM144.683 53.17C144.123 53.63 143.233 54.09 142.013 54.55C140.793 55.01 139.463 55.24 138.023 55.24C135.723 55.24 133.723 54.74 132.023 53.74C130.323 52.74 129.023 51.4 128.123 49.72C127.223 48.02 126.773 46.16 126.773 44.14C126.773 41.92 127.223 39.94 128.123 38.2C129.023 36.46 130.283 35.11 131.903 34.15C133.523 33.17 135.393 32.68 137.513 32.68C138.853 32.68 140.093 32.86 141.233 33.22C142.373 33.58 143.373 34.03 144.233 34.57L142.523 38.68C140.943 37.48 139.323 36.88 137.663 36.88C136.543 36.88 135.493 37.19 134.513 37.81C133.533 38.43 132.753 39.28 132.173 40.36C131.593 41.42 131.303 42.6 131.303 43.9C131.303 45.32 131.573 46.57 132.113 47.65C132.653 48.71 133.423 49.54 134.423 50.14C135.423 50.74 136.593 51.04 137.933 51.04C139.013 51.04 139.983 50.87 140.843 50.53C141.703 50.17 142.383 49.75 142.883 49.27L144.683 53.17ZM162.421 32.92V37.12H157.051V55H152.701V37.12H147.541V32.92H162.421ZM164.508 43.99C164.508 41.99 165.008 40.12 166.008 38.38C167.028 36.64 168.398 35.26 170.118 34.24C171.858 33.2 173.738 32.68 175.758 32.68C177.778 32.68 179.648 33.2 181.368 34.24C183.108 35.26 184.488 36.64 185.508 38.38C186.548 40.12 187.068 41.99 187.068 43.99C187.068 46.03 186.548 47.91 185.508 49.63C184.488 51.35 183.108 52.72 181.368 53.74C179.648 54.74 177.778 55.24 175.758 55.24C173.718 55.24 171.838 54.74 170.118 53.74C168.398 52.72 167.028 51.35 166.008 49.63C165.008 47.91 164.508 46.03 164.508 43.99ZM169.008 43.99C169.008 45.27 169.308 46.45 169.908 47.53C170.528 48.61 171.358 49.47 172.398 50.11C173.458 50.73 174.628 51.04 175.908 51.04C177.148 51.04 178.278 50.73 179.298 50.11C180.318 49.47 181.118 48.62 181.698 47.56C182.278 46.48 182.568 45.29 182.568 43.99C182.568 42.67 182.268 41.47 181.668 40.39C181.068 39.31 180.248 38.46 179.208 37.84C178.188 37.2 177.048 36.88 175.788 36.88C174.528 36.88 173.378 37.2 172.338 37.84C171.318 38.46 170.508 39.31 169.908 40.39C169.308 41.47 169.008 42.67 169.008 43.99ZM203.315 55L198.665 47.98H195.755V55H191.405V32.92H198.095C200.835 32.92 202.955 33.59 204.455 34.93C205.975 36.25 206.735 38.06 206.735 40.36C206.735 41.72 206.445 43 205.865 44.2C205.305 45.38 204.435 46.31 203.255 46.99L208.385 55H203.315ZM195.755 43.78H198.845C200.025 43.78 200.885 43.44 201.425 42.76C201.965 42.06 202.235 41.31 202.235 40.51C202.235 39.71 202.005 38.95 201.545 38.23C201.085 37.49 200.195 37.12 198.875 37.12H195.755V43.78ZM228.544 32.92L220.264 48.13V55H215.914V48.13L207.784 32.92H213.154L218.224 43.12L223.174 32.92H228.544Z" fill="white"/>
<path d="M103.096 76.43C102.678 76.734 102.146 76.943 101.5 77.057C100.854 77.1837 100.17 77.247 99.448 77.247C98.5993 77.247 97.7887 77.114 97.016 76.848C96.256 76.5693 95.5847 76.1513 95.002 75.594C94.4193 75.024 93.957 74.3083 93.615 73.447C93.273 72.573 93.102 71.5407 93.102 70.35C93.102 69.1087 93.292 68.051 93.672 67.177C94.052 66.303 94.546 65.5937 95.154 65.049C95.762 64.4917 96.446 64.0863 97.206 63.833C97.966 63.5797 98.7197 63.453 99.467 63.453C100.303 63.453 100.987 63.4973 101.519 63.586C102.051 63.6747 102.501 63.7887 102.868 63.928L102.45 65.562C101.829 65.2707 100.886 65.125 99.619 65.125C99.049 65.125 98.4917 65.22 97.947 65.41C97.415 65.5873 96.9337 65.885 96.503 66.303C96.085 66.7083 95.7493 67.2467 95.496 67.918C95.2427 68.5767 95.116 69.3873 95.116 70.35C95.116 71.2113 95.2363 71.9713 95.477 72.63C95.7177 73.276 96.047 73.8207 96.465 74.264C96.8957 74.6947 97.396 75.024 97.966 75.252C98.5487 75.4673 99.182 75.575 99.866 75.575C100.487 75.575 101.025 75.518 101.481 75.404C101.937 75.29 102.323 75.1443 102.64 74.967L103.096 76.43ZM110.419 68.678C110.204 68.6147 109.995 68.5577 109.792 68.507C109.589 68.4563 109.399 68.431 109.222 68.431C108.551 68.431 108.025 68.602 107.645 68.944C107.278 69.286 107.05 69.7167 106.961 70.236V77H105.213V67.025H106.429L106.771 68.355H106.942C107.233 67.861 107.569 67.481 107.949 67.215C108.342 66.9363 108.829 66.797 109.412 66.797C109.589 66.797 109.798 66.816 110.039 66.854C110.28 66.8793 110.52 66.93 110.761 67.006L110.419 68.678ZM120.544 76.183C120.1 76.5123 119.549 76.7783 118.891 76.981C118.232 77.171 117.516 77.266 116.744 77.266C115.908 77.266 115.179 77.1457 114.559 76.905C113.951 76.6517 113.45 76.297 113.058 75.841C112.665 75.385 112.374 74.834 112.184 74.188C111.994 73.542 111.899 72.82 111.899 72.022C111.899 70.312 112.317 69.0073 113.153 68.108C114.001 67.196 115.205 66.74 116.763 66.74C117.257 66.74 117.751 66.797 118.245 66.911C118.739 67.0123 119.182 67.215 119.575 67.519C119.967 67.8103 120.284 68.2157 120.525 68.735C120.778 69.2543 120.905 69.932 120.905 70.768C120.905 70.9707 120.898 71.205 120.886 71.471C120.873 71.737 120.848 71.9967 120.81 72.25H113.685C113.71 73.4153 113.989 74.2957 114.521 74.891C115.053 75.4863 115.958 75.784 117.238 75.784C117.77 75.784 118.276 75.6953 118.758 75.518C119.239 75.328 119.613 75.1063 119.879 74.853L120.544 76.183ZM119.233 70.996C119.258 69.9827 119.049 69.267 118.606 68.849C118.175 68.431 117.567 68.222 116.782 68.222C115.895 68.222 115.192 68.431 114.673 68.849C114.153 69.267 113.849 69.9827 113.761 70.996H119.233ZM123.672 67.652C124.812 67.1073 126.225 66.835 127.909 66.835C128.669 66.835 129.277 66.9363 129.733 67.139C130.202 67.329 130.563 67.576 130.816 67.88C131.07 68.184 131.234 68.526 131.31 68.906C131.399 69.2733 131.443 69.6407 131.443 70.008C131.443 70.7047 131.418 71.4077 131.367 72.117C131.317 72.8137 131.291 73.5737 131.291 74.397C131.291 74.8783 131.31 75.347 131.348 75.803C131.399 76.2463 131.475 76.658 131.576 77.038H130.303L129.828 75.518H129.638C129.499 75.708 129.328 75.9043 129.125 76.107C128.923 76.297 128.682 76.468 128.403 76.62C128.125 76.772 127.802 76.8987 127.434 77C127.08 77.1013 126.668 77.152 126.199 77.152C125.731 77.152 125.3 77.0887 124.907 76.962C124.515 76.8227 124.173 76.6327 123.881 76.392C123.603 76.1513 123.381 75.86 123.216 75.518C123.052 75.1633 122.969 74.7707 122.969 74.34C122.969 73.77 123.09 73.276 123.33 72.858C123.584 72.44 123.907 72.098 124.299 71.832C124.692 71.566 125.135 71.3697 125.629 71.243C126.136 71.1163 126.636 71.053 127.13 71.053C127.523 71.053 127.852 71.0593 128.118 71.072C128.397 71.0847 128.625 71.1037 128.802 71.129C128.992 71.1417 129.151 71.1607 129.277 71.186C129.404 71.1987 129.518 71.2113 129.619 71.224C129.645 71.034 129.664 70.8693 129.676 70.73C129.689 70.5907 129.695 70.4133 129.695 70.198C129.695 69.8433 129.657 69.5457 129.581 69.305C129.505 69.0643 129.379 68.8743 129.201 68.735C129.037 68.583 128.809 68.4753 128.517 68.412C128.226 68.3487 127.871 68.317 127.453 68.317C127.213 68.317 126.947 68.336 126.655 68.374C126.364 68.412 126.073 68.469 125.781 68.545C125.49 68.6083 125.199 68.6907 124.907 68.792C124.629 68.8933 124.375 69.001 124.147 69.115L123.672 67.652ZM129.619 72.478C129.518 72.4653 129.41 72.4463 129.296 72.421C129.182 72.3957 129.037 72.3767 128.859 72.364C128.695 72.3513 128.492 72.3387 128.251 72.326C128.023 72.3133 127.738 72.307 127.396 72.307C126.611 72.307 125.984 72.4463 125.515 72.725C125.059 73.0037 124.831 73.4787 124.831 74.15C124.831 74.6567 125.009 75.0367 125.363 75.29C125.731 75.5433 126.199 75.67 126.769 75.67C127.187 75.67 127.555 75.6193 127.871 75.518C128.201 75.404 128.479 75.271 128.707 75.119C128.948 74.9543 129.138 74.777 129.277 74.587C129.429 74.3843 129.543 74.188 129.619 73.998V72.478ZM133.629 67.025H135.32V65.011L137.068 64.555V67.025H140.07V68.507H137.068V73.599C137.068 74.397 137.169 74.9607 137.372 75.29C137.575 75.6193 137.923 75.784 138.417 75.784C138.734 75.784 139.019 75.7523 139.272 75.689C139.538 75.613 139.836 75.518 140.165 75.404L140.564 76.639C140.159 76.8163 139.722 76.962 139.253 77.076C138.797 77.2027 138.303 77.266 137.771 77.266C136.884 77.266 136.251 77.0253 135.871 76.544C135.504 76.0627 135.32 75.2773 135.32 74.188V68.507H133.629V67.025ZM143.039 67.025H144.787V77H143.039V67.025ZM142.678 64.65C142.678 64.3587 142.792 64.099 143.02 63.871C143.248 63.6303 143.546 63.51 143.913 63.51C144.28 63.51 144.584 63.6303 144.825 63.871C145.066 64.099 145.186 64.3587 145.186 64.65C145.186 64.9413 145.066 65.201 144.825 65.429C144.584 65.6443 144.28 65.752 143.913 65.752C143.546 65.752 143.248 65.6443 143.02 65.429C142.792 65.201 142.678 64.9413 142.678 64.65ZM151.501 72.763L152.166 74.815L152.793 72.725L155.168 67.025H157.068L152.413 77.209H151.653L146.903 67.025H148.955L151.501 72.763ZM166.856 76.183C166.413 76.5123 165.862 76.7783 165.203 76.981C164.545 77.171 163.829 77.266 163.056 77.266C162.22 77.266 161.492 77.1457 160.871 76.905C160.263 76.6517 159.763 76.297 159.37 75.841C158.978 75.385 158.686 74.834 158.496 74.188C158.306 73.542 158.211 72.82 158.211 72.022C158.211 70.312 158.629 69.0073 159.465 68.108C160.314 67.196 161.517 66.74 163.075 66.74C163.569 66.74 164.063 66.797 164.557 66.911C165.051 67.0123 165.495 67.215 165.887 67.519C166.28 67.8103 166.597 68.2157 166.837 68.735C167.091 69.2543 167.217 69.932 167.217 70.768C167.217 70.9707 167.211 71.205 167.198 71.471C167.186 71.737 167.16 71.9967 167.122 72.25H159.997C160.023 73.4153 160.301 74.2957 160.833 74.891C161.365 75.4863 162.271 75.784 163.55 75.784C164.082 75.784 164.589 75.6953 165.07 75.518C165.552 75.328 165.925 75.1063 166.191 74.853L166.856 76.183ZM165.545 70.996C165.571 69.9827 165.362 69.267 164.918 68.849C164.488 68.431 163.88 68.222 163.094 68.222C162.208 68.222 161.505 68.431 160.985 68.849C160.466 69.267 160.162 69.9827 160.073 70.996H165.545ZM180.568 70.293H185.546V76.164C185.318 76.3413 185.046 76.4997 184.729 76.639C184.412 76.7657 184.07 76.8733 183.703 76.962C183.348 77.0507 182.981 77.1203 182.601 77.171C182.221 77.2217 181.847 77.247 181.48 77.247C180.568 77.247 179.719 77.114 178.934 76.848C178.161 76.5693 177.484 76.145 176.901 75.575C176.331 75.005 175.881 74.2893 175.552 73.428C175.223 72.554 175.058 71.528 175.058 70.35C175.058 69.1213 175.254 68.07 175.647 67.196C176.052 66.322 176.572 65.6063 177.205 65.049C177.838 64.4917 178.541 64.0863 179.314 63.833C180.099 63.5797 180.878 63.453 181.651 63.453C182.487 63.453 183.177 63.5037 183.722 63.605C184.279 63.6937 184.742 63.8077 185.109 63.947L184.653 65.562C183.994 65.2707 183.044 65.125 181.803 65.125C181.233 65.125 180.663 65.2137 180.093 65.391C179.536 65.5683 179.029 65.866 178.573 66.284C178.13 66.6893 177.769 67.2277 177.49 67.899C177.211 68.5577 177.072 69.3747 177.072 70.35C177.072 71.2493 177.186 72.0283 177.414 72.687C177.655 73.3457 177.984 73.8903 178.402 74.321C178.82 74.7517 179.314 75.0683 179.884 75.271C180.454 75.4737 181.075 75.575 181.746 75.575C182.164 75.575 182.563 75.537 182.943 75.461C183.336 75.3723 183.678 75.252 183.969 75.1V71.737L180.568 71.395V70.293ZM193.525 68.678C193.31 68.6147 193.101 68.5577 192.898 68.507C192.696 68.4563 192.506 68.431 192.328 68.431C191.657 68.431 191.131 68.602 190.751 68.944C190.384 69.286 190.156 69.7167 190.067 70.236V77H188.319V67.025H189.535L189.877 68.355H190.048C190.34 67.861 190.675 67.481 191.055 67.215C191.448 66.9363 191.936 66.797 192.518 66.797C192.696 66.797 192.905 66.816 193.145 66.854C193.386 66.8793 193.627 66.93 193.867 67.006L193.525 68.678ZM195.005 72.022C195.005 71.1987 195.113 70.464 195.328 69.818C195.544 69.1593 195.86 68.602 196.278 68.146C196.696 67.69 197.203 67.3417 197.798 67.101C198.406 66.8603 199.097 66.74 199.869 66.74C200.68 66.74 201.389 66.873 201.997 67.139C202.605 67.405 203.112 67.7787 203.517 68.26C203.923 68.7287 204.22 69.286 204.41 69.932C204.613 70.5653 204.714 71.262 204.714 72.022C204.714 72.8327 204.6 73.561 204.372 74.207C204.157 74.853 203.84 75.404 203.422 75.86C203.017 76.316 202.51 76.6643 201.902 76.905C201.307 77.1457 200.629 77.266 199.869 77.266C199.033 77.266 198.311 77.133 197.703 76.867C197.095 76.601 196.589 76.2337 196.183 75.765C195.791 75.2963 195.493 74.7453 195.29 74.112C195.1 73.466 195.005 72.7693 195.005 72.022ZM196.867 72.022C196.867 72.4907 196.918 72.953 197.019 73.409C197.133 73.8523 197.311 74.2513 197.551 74.606C197.792 74.9607 198.102 75.2457 198.482 75.461C198.862 75.6763 199.331 75.784 199.888 75.784C201.864 75.784 202.852 74.53 202.852 72.022C202.852 71.528 202.795 71.053 202.681 70.597C202.58 70.141 202.409 69.742 202.168 69.4C201.94 69.0453 201.636 68.7603 201.256 68.545C200.876 68.3297 200.42 68.222 199.888 68.222C198.9 68.222 198.147 68.5387 197.627 69.172C197.121 69.7927 196.867 70.7427 196.867 72.022ZM209.272 67.025V72.516C209.272 73.048 209.303 73.5167 209.367 73.922C209.43 74.3273 209.544 74.6693 209.709 74.948C209.873 75.214 210.095 75.423 210.374 75.575C210.665 75.7143 211.032 75.784 211.476 75.784C212.236 75.784 212.856 75.5687 213.338 75.138C213.819 74.7073 214.186 74.1753 214.44 73.542V67.025H216.188V74.169C216.188 74.6503 216.207 75.1443 216.245 75.651C216.283 76.145 216.34 76.5947 216.416 77H215.238L214.782 75.347H214.592C214.262 75.917 213.806 76.3793 213.224 76.734C212.641 77.0887 211.913 77.266 211.039 77.266C210.456 77.266 209.943 77.1963 209.5 77.057C209.069 76.9177 208.702 76.6833 208.398 76.354C208.106 76.012 207.885 75.5623 207.733 75.005C207.593 74.4477 207.524 73.751 207.524 72.915V67.025H209.272ZM219.751 67.025H220.929L221.271 68.298H221.442C221.784 67.804 222.227 67.424 222.772 67.158C223.317 66.8793 223.931 66.74 224.615 66.74C226.059 66.74 227.136 67.1453 227.845 67.956C228.554 68.754 228.909 70.0333 228.909 71.794C228.909 72.63 228.789 73.39 228.548 74.074C228.32 74.7453 227.984 75.3217 227.541 75.803C227.11 76.2717 226.578 76.6327 225.945 76.886C225.324 77.1393 224.628 77.266 223.855 77.266C223.602 77.266 223.367 77.2533 223.152 77.228C222.949 77.2153 222.759 77.1837 222.582 77.133C222.405 77.095 222.227 77.0507 222.05 77C221.873 76.9367 221.689 76.867 221.499 76.791V80.8H219.751V67.025ZM224.216 68.222C223.456 68.222 222.861 68.412 222.43 68.792C221.999 69.172 221.689 69.7547 221.499 70.54V75.138C221.79 75.3407 222.107 75.499 222.449 75.613C222.791 75.727 223.228 75.784 223.76 75.784C224.786 75.784 225.59 75.4483 226.173 74.777C226.756 74.1057 227.047 73.105 227.047 71.775C227.047 70.6983 226.832 69.837 226.401 69.191C225.97 68.545 225.242 68.222 224.216 68.222Z" fill="white"/>
<defs>
<filter id="filter0_d" x="0" y="0" width="84.821" height="84.942" filterUnits="userSpaceOnUse" color-interpolation-filters="sRGB">
<feFlood flood-opacity="0" result="BackgroundImageFix"/>
<feColorMatrix in="SourceAlpha" type="matrix" values="0 0 0 0 0 0 0 0 0 0 0 0 0 0 0 0 0 0 127 0"/>
<feOffset dy="4"/>
<feGaussianBlur stdDeviation="2"/>
<feColorMatrix type="matrix" values="0 0 0 0 0 0 0 0 0 0 0 0 0 0 0 0 0 0 0.25 0"/>
<feBlend mode="normal" in2="BackgroundImageFix" result="effect1_dropShadow"/>
<feBlend mode="normal" in="SourceGraphic" in2="effect1_dropShadow" result="shape"/>
</filter>
</defs>
</svg>
