<svg width="38" height="39" viewBox="0 0 38 39" fill="none" xmlns="http://www.w3.org/2000/svg">
<path d="M0.671193 19.3773L9.42716 22.5885L12.8163 33.2982C13.0331 33.9841 13.8867 34.2377 14.4533 33.7825L19.334 29.8728C19.8456 29.4632 20.5744 29.4428 21.109 29.8242L29.9121 36.1043C30.5182 36.5372 31.3769 36.2108 31.5289 35.4912L37.9776 5.01099C38.1435 4.22487 37.3575 3.56907 36.5957 3.85858L0.660933 17.4801C-0.225862 17.8161 -0.218135 19.0498 0.671193 19.3773ZM12.2701 20.8791L29.3825 10.5228C29.6901 10.3372 30.0065 10.7458 29.7424 10.9865L15.6197 23.886C15.1232 24.34 14.803 24.9477 14.7123 25.6072L14.2313 29.1104C14.1675 29.5781 13.4989 29.6245 13.3675 29.1719L11.5173 22.7837C11.3054 22.0551 11.6142 21.2768 12.2701 20.8791Z" fill="white"/>
</svg>
