<svg width="38" height="39" viewBox="0 0 38 39" fill="none" xmlns="http://www.w3.org/2000/svg">
<path d="M37.1498 9.1518L37.1385 9.10786C36.2217 5.51598 32.0888 1.66169 28.2933 0.859831L28.2505 0.851288C22.1116 -0.283763 15.887 -0.283763 9.74929 0.851288L9.70521 0.859831C5.91102 1.66169 1.77809 5.51598 0.860083 9.10786L0.850009 9.1518C-0.283336 14.168 -0.283336 19.255 0.850009 24.2712L0.860083 24.3151C1.73893 27.7537 5.5641 31.4309 9.21787 32.4422V36.4517C9.21787 37.9029 11.0426 38.6156 12.0802 37.5685L16.2717 33.3457C17.1808 33.395 18.0903 33.4225 18.9999 33.4225C22.0902 33.4225 25.1817 33.1393 28.2505 32.5718L28.2933 32.5633C32.0888 31.7614 36.2217 27.9071 37.1385 24.3152L37.1498 24.2713C38.2831 19.255 38.2831 14.168 37.1498 9.1518ZM33.8329 23.5438C33.2209 25.8871 30.0828 28.8004 27.5894 29.3386C24.3252 29.9402 21.0353 30.1973 17.7486 30.1091C17.6832 30.1074 17.6204 30.1319 17.5748 30.1773C17.1083 30.6414 14.5144 33.2222 14.5144 33.2222L11.2592 36.4601C11.0212 36.7006 10.6031 36.537 10.6031 36.2051V29.5629C10.6031 29.4532 10.5222 29.36 10.411 29.3389L10.4091 29.3385C7.91578 28.8003 4.77894 25.887 4.16567 23.5436C3.14566 19.0095 3.14566 14.4132 4.16567 9.87909C4.77894 7.53576 7.91578 4.62246 10.4091 4.08423C16.1099 3.03339 21.8899 3.03339 27.5894 4.08423C30.084 4.62246 33.2209 7.53576 33.8329 9.87909C34.854 14.4133 34.854 19.0097 33.8329 23.5438Z" fill="white"/>
<path d="M24.4224 26.6097C24.0391 26.4969 23.6737 26.4211 23.3345 26.2847C19.8191 24.8711 16.5838 23.0475 14.021 20.252C12.5637 18.6623 11.423 16.8675 10.4588 14.9682C10.0016 14.0675 9.61623 13.1315 9.22346 12.2016C8.86532 11.3536 9.39283 10.4776 9.9483 9.83866C10.4695 9.23904 11.1402 8.78013 11.8665 8.44194C12.4335 8.17795 12.9927 8.33014 13.4068 8.79588C14.3019 9.80278 15.124 10.8612 15.7898 12.0283C16.1992 12.7462 16.0869 13.6237 15.3449 14.1123C15.1646 14.2311 15.0002 14.3704 14.8323 14.5046C14.6849 14.6221 14.5463 14.7409 14.4453 14.9C14.2607 15.1912 14.2519 15.5347 14.3707 15.8513C15.2857 18.2883 16.828 20.1834 19.3588 21.2041C19.7638 21.3674 20.1706 21.5575 20.6371 21.5048C21.4185 21.4163 21.6715 20.5856 22.219 20.1516C22.7542 19.7275 23.4381 19.7219 24.0146 20.0755C24.5912 20.4292 25.1502 20.8089 25.7058 21.1926C26.2512 21.5692 26.7942 21.9377 27.2973 22.3671C27.781 22.7799 27.9476 23.3216 27.6752 23.8819C27.1765 24.9081 26.4509 25.7618 25.4042 26.3068C25.1087 26.4604 24.7557 26.5102 24.4224 26.6097C24.0391 26.4968 24.7557 26.5102 24.4224 26.6097Z" fill="white"/>
<path d="M19.0106 7.2694C23.6089 7.39425 27.3856 10.3519 28.1949 14.7578C28.3328 15.5085 28.3819 16.2761 28.4432 17.038C28.469 17.3585 28.2818 17.663 27.9249 17.6672C27.5563 17.6715 27.3905 17.3726 27.3665 17.0522C27.3192 16.418 27.2863 15.7811 27.1962 15.1521C26.7202 11.8323 23.9888 9.08572 20.5793 8.49635C20.0663 8.40762 19.5412 8.38431 19.0215 8.33146C18.6929 8.29802 18.2626 8.27874 18.1899 7.88294C18.1288 7.55109 18.4178 7.28685 18.7438 7.26989C18.8325 7.26513 18.9216 7.26903 19.0106 7.2694C23.6089 7.39425 18.9216 7.26903 19.0106 7.2694Z" fill="white"/>
<path d="M25.9987 16.0483C25.9912 16.1039 25.9872 16.2348 25.9535 16.3581C25.8315 16.8056 25.1316 16.8616 24.9704 16.41C24.9227 16.2759 24.9155 16.1235 24.9153 15.9792C24.9136 15.0352 24.702 14.0922 24.2108 13.2708C23.706 12.4266 22.9347 11.717 22.03 11.2876C21.483 11.028 20.8914 10.8666 20.2919 10.7704C20.0298 10.7284 19.765 10.7029 19.5017 10.6674C19.1826 10.6244 19.0122 10.4273 19.0273 10.1225C19.0414 9.83689 19.2567 9.63146 19.5778 9.64904C20.6331 9.70714 21.6524 9.92819 22.5905 10.4097C24.4983 11.389 25.5881 12.9348 25.9062 14.9988C25.9206 15.0923 25.9437 15.185 25.951 15.2788C25.969 15.5106 25.9804 15.7427 25.9987 16.0483C25.9912 16.1039 25.9804 15.7427 25.9987 16.0483Z" fill="white"/>
<path d="M23.1374 15.9408C22.7527 15.9476 22.5468 15.7412 22.5072 15.3993C22.4796 15.1609 22.4578 14.9193 22.3991 14.6874C22.2835 14.2307 22.0331 13.8074 21.6366 13.5275C21.4495 13.3953 21.2374 13.299 21.0153 13.2368C20.7331 13.1579 20.4401 13.1796 20.1585 13.1127C19.8528 13.0401 19.6836 12.8001 19.7317 12.5221C19.7754 12.269 20.0294 12.0715 20.3147 12.0916C22.0974 12.2163 23.3715 13.1097 23.5534 15.1439C23.5662 15.2875 23.5813 15.4392 23.5485 15.5765C23.4922 15.8116 23.3126 15.9294 23.1374 15.9408C22.7527 15.9476 23.3126 15.9294 23.1374 15.9408Z" fill="white"/>
</svg>
